{
	"asset": {
		"generator": "Tilt Brush 22.3.bfe37158d",
		"version": "1.1",
		"copyright": "Unknown."
	},
	"buffers": {
		"buffer_sketch": {
			"byteLength": 4849528,
			"type": "arraybuffer",
			"uri": "sketch.bin"
		}
	},
	"accessors": {
		"accessor_position_WigglyGraphite_5347acf0-a8e2-47b6-8346-30c70719d763_0_i0": {
			"bufferView": "vec3BufferView",
			"byteOffset": 0,
			"byteStride": 12,
			"componentType": 5126,
			"count": 1534,
			"max": [ 0.321503073, 0.399245232, 0.175129339 ],
			"min": [ -0.518381536, 0.222924456, -0.647678792 ],
			"type": "VEC3"
		},
		"accessor_normal_WigglyGraphite_5347acf0-a8e2-47b6-8346-30c70719d763_0_i0": {
			"bufferView": "vec3BufferView",
			"byteOffset": 18408,
			"byteStride": 12,
			"componentType": 5126,
			"count": 1534,
			"max": [ 0.997368038, 0.999931395, 0.871376395 ],
			"min": [ -0.993053675, -0.99167347, -0.999253988 ],
			"type": "VEC3"
		},
		"accessor_color_WigglyGraphite_5347acf0-a8e2-47b6-8346-30c70719d763_0_i0": {
			"bufferView": "vec4BufferView",
			"byteOffset": 0,
			"byteStride": 16,
			"componentType": 5126,
			"count": 1534,
			"type": "VEC4"
		},
		"accessor_tangent_WigglyGraphite_5347acf0-a8e2-47b6-8346-30c70719d763_0_i0": {
			"bufferView": "vec4BufferView",
			"byteOffset": 24544,
			"byteStride": 16,
			"componentType": 5126,
			"count": 1534,
			"max": [ 0.999131858, 0.976042449, 0.997876048, 1 ],
			"min": [ -0.999996424, -0.986173511, -0.998944402, 1 ],
			"type": "VEC4"
		},
		"accessor_uv0_WigglyGraphite_5347acf0-a8e2-47b6-8346-30c70719d763_0_i0": {
			"bufferView": "vec2BufferView",
			"byteOffset": 0,
			"byteStride": 8,
			"componentType": 5126,
			"count": 1534,
			"max": [ 3.99414015, 1 ],
			"min": [ 0.0369384363, 0 ],
			"type": "VEC2"
		},
		"accessor_indices_0_WigglyGraphite_5347acf0-a8e2-47b6-8346-30c70719d763_0_i0": {
			"bufferView": "ushortBufferView",
			"byteOffset": 0,
			"byteStride": 0,
			"componentType": 5123,
			"count": 4482,
			"max": [ 1533 ],
			"min": [ 0 ],
			"type": "SCALAR"
		},
		"accessor_position_ShinyHull_faaa4d44-fcfb-4177-96be-753ac0421ba3_0_i0": {
			"bufferView": "vec3BufferView",
			"byteOffset": 36816,
			"byteStride": 12,
			"componentType": 5126,
			"count": 64974,
			"max": [ 0.384892255, 0.417533845, 0.10895858 ],
			"min": [ -0.371093005, 0.243384078, -0.658395648 ],
			"type": "VEC3"
		},
		"accessor_normal_ShinyHull_faaa4d44-fcfb-4177-96be-753ac0421ba3_0_i0": {
			"bufferView": "vec3BufferView",
			"byteOffset": 816504,
			"byteStride": 12,
			"componentType": 5126,
			"count": 64974,
			"max": [ 0.999972761, 0.999918818, 0.999973118 ],
			"min": [ -0.999798477, -0.999840379, -0.99986887 ],
			"type": "VEC3"
		},
		"accessor_color_ShinyHull_faaa4d44-fcfb-4177-96be-753ac0421ba3_0_i0": {
			"bufferView": "vec4BufferView",
			"byteOffset": 49088,
			"byteStride": 16,
			"componentType": 5126,
			"count": 64974,
			"type": "VEC4"
		},
		"accessor_uv0_ShinyHull_faaa4d44-fcfb-4177-96be-753ac0421ba3_0_i0": {
			"bufferView": "vec3BufferView",
			"byteOffset": 1596192,
			"byteStride": 12,
			"componentType": 5126,
			"count": 64974,
			"max": [ 0, 1, 0.0116780959 ],
			"min": [ 0, 1, 0.007195557 ],
			"type": "VEC3"
		},
		"accessor_indices_0_ShinyHull_faaa4d44-fcfb-4177-96be-753ac0421ba3_0_i0": {
			"bufferView": "ushortBufferView",
			"byteOffset": 8964,
			"byteStride": 0,
			"componentType": 5123,
			"count": 64974,
			"max": [ 64973 ],
			"min": [ 0 ],
			"type": "SCALAR"
		},
		"accessor_position_ShinyHull_faaa4d44-fcfb-4177-96be-753ac0421ba3_0_i1": {
			"bufferView": "vec3BufferView",
			"byteOffset": 2375880,
			"byteStride": 12,
			"componentType": 5126,
			"count": 22848,
			"max": [ -0.169315964, 0.393098623, 0.200503156 ],
			"min": [ -0.524396896, 0.243986562, -0.329055756 ],
			"type": "VEC3"
		},
		"accessor_normal_ShinyHull_faaa4d44-fcfb-4177-96be-753ac0421ba3_0_i1": {
			"bufferView": "vec3BufferView",
			"byteOffset": 2650056,
			"byteStride": 12,
			"componentType": 5126,
			"count": 22848,
			"max": [ 0.999942541, 0.999980748, 0.998854756 ],
			"min": [ -0.999813616, -0.99990958, -0.999105871 ],
			"type": "VEC3"
		},
		"accessor_color_ShinyHull_faaa4d44-fcfb-4177-96be-753ac0421ba3_0_i1": {
			"bufferView": "vec4BufferView",
			"byteOffset": 1088672,
			"byteStride": 16,
			"componentType": 5126,
			"count": 22848,
			"type": "VEC4"
		},
		"accessor_uv0_ShinyHull_faaa4d44-fcfb-4177-96be-753ac0421ba3_0_i1": {
			"bufferView": "vec3BufferView",
			"byteOffset": 2924232,
			"byteStride": 12,
			"componentType": 5126,
			"count": 22848,
			"max": [ 0, 1, 0.00739664165 ],
			"min": [ 0, 1, 0.00739664072 ],
			"type": "VEC3"
		},
		"accessor_indices_0_ShinyHull_faaa4d44-fcfb-4177-96be-753ac0421ba3_0_i1": {
			"bufferView": "ushortBufferView",
			"byteOffset": 138912,
			"byteStride": 0,
			"componentType": 5123,
			"count": 22848,
			"max": [ 22847 ],
			"min": [ 0 ],
			"type": "SCALAR"
		}
	},
	"bufferViews": {
		"ushortBufferView": {
			"buffer": "buffer_sketch",
			"byteLength": 184608,
			"byteOffset": 0,
			"target": 34963
		},
		"vec2BufferView": {
			"buffer": "buffer_sketch",
			"byteLength": 12272,
			"byteOffset": 184608,
			"target": 34962
		},
		"vec3BufferView": {
			"buffer": "buffer_sketch",
			"byteLength": 3198408,
			"byteOffset": 196880,
			"target": 34962
		},
		"vec4BufferView": {
			"buffer": "buffer_sketch",
			"byteLength": 1454240,
			"byteOffset": 3395288,
			"target": 34962
		}
	},
	"meshes": {
		"mesh_WigglyGraphite_5347acf0-a8e2-47b6-8346-30c70719d763_0_i0": {
			"name": "mesh_WigglyGraphite_5347acf0-a8e2-47b6-8346-30c70719d763_0_i0",
			"primitives": [
				{
					"attributes": {
						"POSITION": "accessor_position_WigglyGraphite_5347acf0-a8e2-47b6-8346-30c70719d763_0_i0",
						"NORMAL": "accessor_normal_WigglyGraphite_5347acf0-a8e2-47b6-8346-30c70719d763_0_i0",
						"COLOR": "accessor_color_WigglyGraphite_5347acf0-a8e2-47b6-8346-30c70719d763_0_i0",
						"TANGENT": "accessor_tangent_WigglyGraphite_5347acf0-a8e2-47b6-8346-30c70719d763_0_i0",
						"TEXCOORD_0": "accessor_uv0_WigglyGraphite_5347acf0-a8e2-47b6-8346-30c70719d763_0_i0"
					},
					"indices": "accessor_indices_0_WigglyGraphite_5347acf0-a8e2-47b6-8346-30c70719d763_0_i0",
					"material": "material_5347acf0-a8e2-47b6-8346-30c70719d763",
					"mode": 4
				}
			]
		},
		"mesh_ShinyHull_faaa4d44-fcfb-4177-96be-753ac0421ba3_0_i0": {
			"name": "mesh_ShinyHull_faaa4d44-fcfb-4177-96be-753ac0421ba3_0_i0",
			"primitives": [
				{
					"attributes": {
						"POSITION": "accessor_position_ShinyHull_faaa4d44-fcfb-4177-96be-753ac0421ba3_0_i0",
						"NORMAL": "accessor_normal_ShinyHull_faaa4d44-fcfb-4177-96be-753ac0421ba3_0_i0",
						"COLOR": "accessor_color_ShinyHull_faaa4d44-fcfb-4177-96be-753ac0421ba3_0_i0",
						"TEXCOORD_0": "accessor_uv0_ShinyHull_faaa4d44-fcfb-4177-96be-753ac0421ba3_0_i0"
					},
					"indices": "accessor_indices_0_ShinyHull_faaa4d44-fcfb-4177-96be-753ac0421ba3_0_i0",
					"material": "material_faaa4d44-fcfb-4177-96be-753ac0421ba3",
					"mode": 4
				}
			]
		},
		"mesh_ShinyHull_faaa4d44-fcfb-4177-96be-753ac0421ba3_0_i1": {
			"name": "mesh_ShinyHull_faaa4d44-fcfb-4177-96be-753ac0421ba3_0_i1",
			"primitives": [
				{
					"attributes": {
						"POSITION": "accessor_position_ShinyHull_faaa4d44-fcfb-4177-96be-753ac0421ba3_0_i1",
						"NORMAL": "accessor_normal_ShinyHull_faaa4d44-fcfb-4177-96be-753ac0421ba3_0_i1",
						"COLOR": "accessor_color_ShinyHull_faaa4d44-fcfb-4177-96be-753ac0421ba3_0_i1",
						"TEXCOORD_0": "accessor_uv0_ShinyHull_faaa4d44-fcfb-4177-96be-753ac0421ba3_0_i1"
					},
					"indices": "accessor_indices_0_ShinyHull_faaa4d44-fcfb-4177-96be-753ac0421ba3_0_i1",
					"material": "material_faaa4d44-fcfb-4177-96be-753ac0421ba3",
					"mode": 4
				}
			]
		}
	},
	"shaders": {
		"vertex_5347acf0-a8e2-47b6-8346-30c70719d763": {
			"type": 35633,
			"uri": "https://www.tiltbrush.com/shaders/brushes/WigglyGraphite-5347acf0-a8e2-47b6-8346-30c70719d763/WigglyGraphite-5347acf0-a8e2-47b6-8346-30c70719d763-v10.0-vertex.glsl"
		},
		"fragment_5347acf0-a8e2-47b6-8346-30c70719d763": {
			"type": 35632,
			"uri": "https://www.tiltbrush.com/shaders/brushes/WigglyGraphite-5347acf0-a8e2-47b6-8346-30c70719d763/WigglyGraphite-5347acf0-a8e2-47b6-8346-30c70719d763-v10.0-fragment.glsl"
		},
		"vertex_faaa4d44-fcfb-4177-96be-753ac0421ba3": {
			"type": 35633,
			"uri": "https://www.tiltbrush.com/shaders/brushes/ShinyHull-faaa4d44-fcfb-4177-96be-753ac0421ba3/ShinyHull-faaa4d44-fcfb-4177-96be-753ac0421ba3-v10.0-vertex.glsl"
		},
		"fragment_faaa4d44-fcfb-4177-96be-753ac0421ba3": {
			"type": 35632,
			"uri": "https://www.tiltbrush.com/shaders/brushes/ShinyHull-faaa4d44-fcfb-4177-96be-753ac0421ba3/ShinyHull-faaa4d44-fcfb-4177-96be-753ac0421ba3-v10.0-fragment.glsl"
		}
	},
	"programs": {
		"program_5347acf0-a8e2-47b6-8346-30c70719d763": {
			"attributes": [
				"a_position",
				"a_normal",
				"a_color",
				"a_tangent",
				"a_texcoord0"
			],
			"vertexShader": "vertex_5347acf0-a8e2-47b6-8346-30c70719d763",
			"fragmentShader": "fragment_5347acf0-a8e2-47b6-8346-30c70719d763"
		},
		"program_faaa4d44-fcfb-4177-96be-753ac0421ba3": {
			"attributes": [
				"a_position",
				"a_normal",
				"a_color",
				"a_texcoord0"
			],
			"vertexShader": "vertex_faaa4d44-fcfb-4177-96be-753ac0421ba3",
			"fragmentShader": "fragment_faaa4d44-fcfb-4177-96be-753ac0421ba3"
		}
	},
	"techniques": {
		"technique_5347acf0-a8e2-47b6-8346-30c70719d763": {
			"program": "program_5347acf0-a8e2-47b6-8346-30c70719d763",
			"parameters": {
				"position": {
					"type": 35665,
					"semantic": "POSITION"
				},
				"normal": {
					"type": 35665,
					"semantic": "NORMAL"
				},
				"color": {
					"type": 35666,
					"semantic": "COLOR"
				},
				"tangent": {
					"type": 35666,
					"semantic": "TANGENT"
				},
				"texcoord0": {
					"type": 35664,
					"semantic": "TEXCOORD_0"
				},
				"modelViewMatrix": {
					"type": 35676,
					"semantic": "MODELVIEW"
				},
				"projectionMatrix": {
					"type": 35676,
					"semantic": "PROJECTION"
				},
				"normalMatrix": {
					"type": 35675,
					"semantic": "MODELVIEWINVERSETRANSPOSE"
				},
				"SceneLight_0_matrix": {
					"type": 35676,
					"semantic": "MODELVIEW",
					"node": "node_SceneLight_0_i1"
				},
				"SceneLight_0_color": {
					"type": 35666,
					"node": "node_SceneLight_0_i1"
				},
				"SceneLight_1_matrix": {
					"type": 35676,
					"semantic": "MODELVIEW",
					"node": "node_SceneLight_1_i2"
				},
				"SceneLight_1_color": {
					"type": 35666,
					"node": "node_SceneLight_1_i2"
				},
				"ambient_light_color": {
					"type": 35666
				},
				"Cutoff": {
					"type": 5126
				},
				"MainTex_TexelSize": {
					"type": 35666
				},
				"MainTex": {
					"type": 35678
				}
			},
			"attributes": {
				"a_position": "position",
				"a_normal": "normal",
				"a_color": "color",
				"a_tangent": "tangent",
				"a_texcoord0": "texcoord0"
			},
			"uniforms": {
				"u_modelViewMatrix": "modelViewMatrix",
				"u_projectionMatrix": "projectionMatrix",
				"u_normalMatrix": "normalMatrix",
				"u_SceneLight_0_matrix": "SceneLight_0_matrix",
				"u_SceneLight_0_color": "SceneLight_0_color",
				"u_SceneLight_1_matrix": "SceneLight_1_matrix",
				"u_SceneLight_1_color": "SceneLight_1_color",
				"u_ambient_light_color": "ambient_light_color",
				"u_Cutoff": "Cutoff",
				"u_MainTex_TexelSize": "MainTex_TexelSize",
				"u_MainTex": "MainTex"
			},
			"states": {
				"enable": [
					2929
				],
				"functions": {
					"depthMask": [true]
				}
			}
		},
		"technique_faaa4d44-fcfb-4177-96be-753ac0421ba3": {
			"program": "program_faaa4d44-fcfb-4177-96be-753ac0421ba3",
			"parameters": {
				"position": {
					"type": 35665,
					"semantic": "POSITION"
				},
				"normal": {
					"type": 35665,
					"semantic": "NORMAL"
				},
				"color": {
					"type": 35666,
					"semantic": "COLOR"
				},
				"texcoord0": {
					"type": 35665,
					"semantic": "TEXCOORD_0"
				},
				"modelViewMatrix": {
					"type": 35676,
					"semantic": "MODELVIEW"
				},
				"projectionMatrix": {
					"type": 35676,
					"semantic": "PROJECTION"
				},
				"normalMatrix": {
					"type": 35675,
					"semantic": "MODELVIEWINVERSETRANSPOSE"
				},
				"SceneLight_0_matrix": {
					"type": 35676,
					"semantic": "MODELVIEW",
					"node": "node_SceneLight_0_i1"
				},
				"SceneLight_0_color": {
					"type": 35666,
					"node": "node_SceneLight_0_i1"
				},
				"SceneLight_1_matrix": {
					"type": 35676,
					"semantic": "MODELVIEW",
					"node": "node_SceneLight_1_i2"
				},
				"SceneLight_1_color": {
					"type": 35666,
					"node": "node_SceneLight_1_i2"
				},
				"ambient_light_color": {
					"type": 35666
				},
				"Shininess": {
					"type": 5126
				},
				"Cutoff": {
					"type": 5126
				},
				"Color": {
					"type": 35666
				},
				"SpecColor": {
					"type": 35666
				}
			},
			"attributes": {
				"a_position": "position",
				"a_normal": "normal",
				"a_color": "color",
				"a_texcoord0": "texcoord0"
			},
			"uniforms": {
				"u_modelViewMatrix": "modelViewMatrix",
				"u_projectionMatrix": "projectionMatrix",
				"u_normalMatrix": "normalMatrix",
				"u_SceneLight_0_matrix": "SceneLight_0_matrix",
				"u_SceneLight_0_color": "SceneLight_0_color",
				"u_SceneLight_1_matrix": "SceneLight_1_matrix",
				"u_SceneLight_1_color": "SceneLight_1_color",
				"u_ambient_light_color": "ambient_light_color",
				"u_Shininess": "Shininess",
				"u_Cutoff": "Cutoff",
				"u_Color": "Color",
				"u_SpecColor": "SpecColor"
			},
			"states": {
				"enable": [
					2929
				],
				"functions": {
					"depthMask": [true]
				}
			}
		}
	},
	"samplers": {
		"sampler_LINEAR_LINEAR_MIPMAP_LINEAR_REPEAT": {
			"magFilter": 9729,
			"minFilter": 9987,
			"wrapS": 10497,
			"wrapT": 10497
		}
	},
	"textures": {
		"texture_5347acf0-a8e2-47b6-8346-30c70719d763_MainTex": {
			"format": 6408,
			"internalFormat": 6408,
			"sampler": "sampler_LINEAR_LINEAR_MIPMAP_LINEAR_REPEAT",
			"source": "image_5347acf0-a8e2-47b6-8346-30c70719d763_MainTex",
			"target": 3553,
			"type": 5121
		}
	},
	"images": {
		"image_5347acf0-a8e2-47b6-8346-30c70719d763_MainTex": {
			"uri": "https://www.tiltbrush.com/shaders/brushes/WigglyGraphite-5347acf0-a8e2-47b6-8346-30c70719d763/WigglyGraphite-5347acf0-a8e2-47b6-8346-30c70719d763-v10.0-MainTex.png"
		}
	},
	"materials": {
		"material_5347acf0-a8e2-47b6-8346-30c70719d763": {
			"technique": "technique_5347acf0-a8e2-47b6-8346-30c70719d763",
			"values": {
				"SceneLight_0_color": [0.7780392, 0.8156863, 0.9913726, 1],
				"SceneLight_1_color": [0.4282353, 0.4211765, 0.3458824, 1],
				"ambient_light_color": [0.3921569, 0.3921569, 0.3921569, 1],
				"Cutoff": 0.5,
				"MainTex_TexelSize": [0.001953125, 0.001953125, 512, 512],
				"MainTex": "texture_5347acf0-a8e2-47b6-8346-30c70719d763_MainTex"
			},
			"name": "material_5347acf0-a8e2-47b6-8346-30c70719d763"
		},
		"material_faaa4d44-fcfb-4177-96be-753ac0421ba3": {
			"technique": "technique_faaa4d44-fcfb-4177-96be-753ac0421ba3",
			"values": {
				"SceneLight_0_color": [0.7780392, 0.8156863, 0.9913726, 1],
				"SceneLight_1_color": [0.4282353, 0.4211765, 0.3458824, 1],
				"ambient_light_color": [0.3921569, 0.3921569, 0.3921569, 1],
				"Shininess": 0.743,
				"Cutoff": 0.5,
				"Color": [1, 1, 1, 1],
				"SpecColor": [0.1985294, 0.1985294, 0.1985294, 0]
			},
			"name": "material_faaa4d44-fcfb-4177-96be-753ac0421ba3"
		}
	},
	"nodes": {
		"node_WigglyGraphite_5347acf0-a8e2-47b6-8346-30c70719d763_0_i0": {
			"name": "node_WigglyGraphite_5347acf0-a8e2-47b6-8346-30c70719d763_0_i0",
			"meshes": [
				"mesh_WigglyGraphite_5347acf0-a8e2-47b6-8346-30c70719d763_0_i0"
			],
			"matrix": [1, 0, 0, 0, 0, 1, 0, 0, 0, 0, 1, 0, 0, 0, 0, 1]
		},
		"node_SceneLight_0_i1": {
			"name": "node_SceneLight_0_i1",
			"light": "SceneLight_0",
			"matrix": [0.898794, 0.2191856, -0.3796406, 0, -0.4383712, 0.449397, -0.7783785, 0, -1.490116E-08, 0.8660254, 0.4999999, 0, -0.6661725, 1.666948, 0.5875418, 1]
		},
		"node_SceneLight_1_i2": {
			"name": "node_SceneLight_1_i2",
			"light": "SceneLight_1",
			"matrix": [0.7660446, -0.4924039, -0.4131757, 0, -0.6427875, -0.5868244, -0.4924039, 0, 2.980232E-08, 0.6427875, -0.7660447, 0, -0.6661725, 1.652438, 0.5052489, 1]
		},
		"node_ShinyHull_faaa4d44-fcfb-4177-96be-753ac0421ba3_0_i0": {
			"name": "node_ShinyHull_faaa4d44-fcfb-4177-96be-753ac0421ba3_0_i0",
			"meshes": [
				"mesh_ShinyHull_faaa4d44-fcfb-4177-96be-753ac0421ba3_0_i0"
			],
			"matrix": [1, 0, 0, 0, 0, 1, 0, 0, 0, 0, 1, 0, 0, 0, 0, 1]
		},
		"node_ShinyHull_faaa4d44-fcfb-4177-96be-753ac0421ba3_0_i1": {
			"name": "node_ShinyHull_faaa4d44-fcfb-4177-96be-753ac0421ba3_0_i1",
			"meshes": [
				"mesh_ShinyHull_faaa4d44-fcfb-4177-96be-753ac0421ba3_0_i1"
			],
			"matrix": [1, 0, 0, 0, 0, 1, 0, 0, 0, 0, 1, 0, 0, 0, 0, 1]
		}
	},
	"scene": "defaultScene",
	"scenes": {
		"defaultScene": {
			"nodes": [
				"node_WigglyGraphite_5347acf0-a8e2-47b6-8346-30c70719d763_0_i0",
				"node_SceneLight_0_i1",
				"node_SceneLight_1_i2",
				"node_ShinyHull_faaa4d44-fcfb-4177-96be-753ac0421ba3_0_i0",
				"node_ShinyHull_faaa4d44-fcfb-4177-96be-753ac0421ba3_0_i1"
			],
			"extras": {
				"TB_EnvironmentGuid": "580b4529-ac50-4fe9-b8d2-635765a14893",
				"TB_Environment": "Black",
				"TB_UseGradient": "true",
				"TB_SkyColorA": "0, 0, 0",
				"TB_SkyColorB": "0, 0, 0",
				"TB_SkyGradientDirection": "0, 1, 0",
				"TB_FogColor": "0.01960784, 0.01960784, 0.01960784",
				"TB_FogDensity": "0",
				"TB_SkyColorHorizon": "0, 0, 0",
				"TB_SkyColorZenith": "0, 0, 0"
			}
		}
	}
}